<?xml version="1.0" encoding="UTF-8" standalone="no"?>
<!DOCTYPE svg PUBLIC "-//W3C//DTD SVG 1.1//EN"
 "http://www.w3.org/Graphics/SVG/1.1/DTD/svg11.dtd">
<!-- Generated by graphviz version 2.42.4 (0)
 -->
<!-- Title: G Pages: 1 -->
<svg width="422pt" height="525pt"
 viewBox="0.00 0.00 422.40 525.40" xmlns="http://www.w3.org/2000/svg" xmlns:xlink="http://www.w3.org/1999/xlink">
<g id="graph0" class="graph" transform="scale(1 1) rotate(0) translate(25.2 500.2)">
<title>G</title>
<polygon fill="white" stroke="transparent" points="-25.2,25.2 -25.2,-500.2 397.2,-500.2 397.2,25.2 -25.2,25.2"/>
<!-- A -->
<g id="node1" class="node">
<title>A</title>
<path fill="#ecfdf5" stroke="#16a34a" stroke-width="1.5" d="M69.5,-475C69.5,-475 16.5,-475 16.5,-475 10.5,-475 4.5,-469 4.5,-463 4.5,-463 4.5,-443 4.5,-443 4.5,-437 10.5,-431 16.5,-431 16.5,-431 69.5,-431 69.5,-431 75.5,-431 81.5,-437 81.5,-443 81.5,-443 81.5,-463 81.5,-463 81.5,-469 75.5,-475 69.5,-475"/>
<text text-anchor="middle" x="43" y="-456.4" font-family="Arial" font-size="12.00" fill="#0f172a">Budget</text>
<text text-anchor="middle" x="43" y="-443.4" font-family="Arial" font-size="12.00" fill="#0f172a">US$ 1,00</text>
</g>
<!-- B -->
<g id="node2" class="node">
<title>B</title>
<path fill="#f8fafc" stroke="#94a3b8" stroke-width="1.5" d="M66,-369.5C66,-369.5 20,-369.5 20,-369.5 14,-369.5 8,-363.5 8,-357.5 8,-357.5 8,-345.5 8,-345.5 8,-339.5 14,-333.5 20,-333.5 20,-333.5 66,-333.5 66,-333.5 72,-333.5 78,-339.5 78,-345.5 78,-345.5 78,-357.5 78,-357.5 78,-363.5 72,-369.5 66,-369.5"/>
<text text-anchor="middle" x="43" y="-348.4" font-family="Arial" font-size="12.00" fill="#0f172a">Subtask</text>
</g>
<!-- A&#45;&gt;B -->
<g id="edge1" class="edge">
<title>A&#45;&gt;B</title>
<path fill="none" stroke="#64748b" stroke-width="1.4" d="M43,-430.9C43,-415.35 43,-394.15 43,-377.71"/>
<polygon fill="#64748b" stroke="#64748b" stroke-width="1.4" points="45.8,-377.6 43,-369.6 40.2,-377.6 45.8,-377.6"/>
</g>
<!-- C -->
<g id="node3" class="node">
<title>C</title>
<path fill="#fff7ed" stroke="#ea580c" stroke-width="1.5" d="M133.03,-267.13C133.03,-267.13 55.97,-232.87 55.97,-232.87 50.48,-230.44 50.48,-225.56 55.97,-223.13 55.97,-223.13 133.03,-188.87 133.03,-188.87 138.52,-186.44 149.48,-186.44 154.97,-188.87 154.97,-188.87 232.03,-223.13 232.03,-223.13 237.52,-225.56 237.52,-230.44 232.03,-232.87 232.03,-232.87 154.97,-267.13 154.97,-267.13 149.48,-269.56 138.52,-269.56 133.03,-267.13"/>
<text text-anchor="middle" x="144" y="-231.4" font-family="Arial" font-size="12.00" fill="#0f172a">JEV</text>
<text text-anchor="middle" x="144" y="-218.4" font-family="Arial" font-size="12.00" fill="#0f172a">Model Router</text>
</g>
<!-- B&#45;&gt;C -->
<g id="edge2" class="edge">
<title>B&#45;&gt;C</title>
<path fill="none" stroke="#64748b" stroke-width="1.4" d="M57.26,-333.35C71.51,-316.2 93.9,-289.26 112.37,-267.05"/>
<polygon fill="#64748b" stroke="#64748b" stroke-width="1.4" points="114.75,-268.57 117.71,-260.63 110.44,-264.99 114.75,-268.57"/>
</g>
<!-- D -->
<g id="node4" class="node">
<title>D</title>
<path fill="#f8fafc" stroke="#64748b" stroke-width="1.5" d="M54,-123C54,-123 12,-123 12,-123 6,-123 0,-117 0,-111 0,-111 0,-99 0,-99 0,-93 6,-87 12,-87 12,-87 54,-87 54,-87 60,-87 66,-93 66,-99 66,-99 66,-111 66,-111 66,-117 60,-123 54,-123"/>
<text text-anchor="middle" x="33" y="-101.9" font-family="Arial" font-size="12.00" fill="#0f172a">SMALL</text>
</g>
<!-- C&#45;&gt;D -->
<g id="edge3" class="edge">
<title>C&#45;&gt;D</title>
<path fill="none" stroke="#64748b" stroke-width="1.4" d="M115.7,-196.15C96.66,-175.39 71.94,-148.45 54.5,-129.44"/>
<polygon fill="#64748b" stroke="#64748b" stroke-width="1.4" points="56.36,-127.32 48.89,-123.32 52.23,-131.11 56.36,-127.32"/>
<text text-anchor="middle" x="93.5" y="-151" font-family="Arial" font-size="10.00" fill="#334155">Barato</text>
</g>
<!-- E -->
<g id="node5" class="node">
<title>E</title>
<path fill="#eef2ff" stroke="#4f46e5" stroke-width="1.5" d="M169.5,-123C169.5,-123 118.5,-123 118.5,-123 112.5,-123 106.5,-117 106.5,-111 106.5,-111 106.5,-99 106.5,-99 106.5,-93 112.5,-87 118.5,-87 118.5,-87 169.5,-87 169.5,-87 175.5,-87 181.5,-93 181.5,-99 181.5,-99 181.5,-111 181.5,-111 181.5,-117 175.5,-123 169.5,-123"/>
<text text-anchor="middle" x="144" y="-101.9" font-family="Arial" font-size="12.00" fill="#0f172a">CODING</text>
</g>
<!-- C&#45;&gt;E -->
<g id="edge4" class="edge">
<title>C&#45;&gt;E</title>
<path fill="none" stroke="#64748b" stroke-width="1.4" d="M144,-184C144,-166.4 144,-146.63 144,-131.4"/>
<polygon fill="#64748b" stroke="#64748b" stroke-width="1.4" points="146.8,-131.01 144,-123.01 141.2,-131.01 146.8,-131.01"/>
<text text-anchor="middle" x="171" y="-151" font-family="Arial" font-size="10.00" fill="#334155">Especialista</text>
</g>
<!-- F -->
<g id="node6" class="node">
<title>F</title>
<path fill="#faf5ff" stroke="#9333ea" stroke-width="1.5" d="M298.5,-123C298.5,-123 233.5,-123 233.5,-123 227.5,-123 221.5,-117 221.5,-111 221.5,-111 221.5,-99 221.5,-99 221.5,-93 227.5,-87 233.5,-87 233.5,-87 298.5,-87 298.5,-87 304.5,-87 310.5,-93 310.5,-99 310.5,-99 310.5,-111 310.5,-111 310.5,-117 304.5,-123 298.5,-123"/>
<text text-anchor="middle" x="266" y="-101.9" font-family="Arial" font-size="12.00" fill="#0f172a">FRONTIER</text>
</g>
<!-- C&#45;&gt;F -->
<g id="edge5" class="edge">
<title>C&#45;&gt;F</title>
<path fill="none" stroke="#64748b" stroke-width="1.4" d="M174.16,-197.09C195.39,-176.03 223.38,-148.27 242.86,-128.95"/>
<polygon fill="#64748b" stroke="#64748b" stroke-width="1.4" points="244.91,-130.87 248.61,-123.24 240.96,-126.89 244.91,-130.87"/>
<text text-anchor="middle" x="236" y="-151" font-family="Arial" font-size="10.00" fill="#334155">Difícil</text>
</g>
<!-- G -->
<g id="node7" class="node">
<title>G</title>
<path fill="#e0f2fe" stroke="#0284c7" stroke-width="1.5" d="M172,-36C172,-36 116,-36 116,-36 110,-36 104,-30 104,-24 104,-24 104,-12 104,-12 104,-6 110,0 116,0 116,0 172,0 172,0 178,0 184,-6 184,-12 184,-12 184,-24 184,-24 184,-30 178,-36 172,-36"/>
<text text-anchor="middle" x="144" y="-14.9" font-family="Arial" font-size="12.00" fill="#0f172a">Execução</text>
</g>
<!-- D&#45;&gt;G -->
<g id="edge6" class="edge">
<title>D&#45;&gt;G</title>
<path fill="none" stroke="#64748b" stroke-width="1.4" d="M55.46,-86.8C72.61,-73.66 96.38,-55.46 114.98,-41.22"/>
<polygon fill="#64748b" stroke="#64748b" stroke-width="1.4" points="116.92,-43.26 121.57,-36.18 113.52,-38.82 116.92,-43.26"/>
</g>
<!-- E&#45;&gt;G -->
<g id="edge7" class="edge">
<title>E&#45;&gt;G</title>
<path fill="none" stroke="#64748b" stroke-width="1.4" d="M144,-86.8C144,-74.59 144,-57.99 144,-44.28"/>
<polygon fill="#64748b" stroke="#64748b" stroke-width="1.4" points="146.8,-44.18 144,-36.18 141.2,-44.18 146.8,-44.18"/>
</g>
<!-- F&#45;&gt;G -->
<g id="edge8" class="edge">
<title>F&#45;&gt;G</title>
<path fill="none" stroke="#64748b" stroke-width="1.4" d="M241.31,-86.8C222.29,-73.55 195.88,-55.14 175.36,-40.85"/>
<polygon fill="#64748b" stroke="#64748b" stroke-width="1.4" points="176.82,-38.45 168.65,-36.18 173.62,-43.05 176.82,-38.45"/>
</g>
<!-- H -->
<g id="node8" class="node">
<title>H</title>
<polygon fill="#fffbeb" stroke="#d97706" stroke-width="1.5" points="366,-380 118,-380 118,-323 372,-323 372,-374 366,-380"/>
<polyline fill="none" stroke="#d97706" stroke-width="1.5" points="366,-380 366,-374 "/>
<polyline fill="none" stroke="#d97706" stroke-width="1.5" points="372,-374 366,-374 "/>
<text text-anchor="middle" x="245" y="-361.4" font-family="Arial" font-size="12.00" fill="#0f172a">Princípio</text>
<text text-anchor="middle" x="245" y="-348.4" font-family="Arial" font-size="12.00" fill="#0f172a">Não escolher sempre o melhor modelo.</text>
<text text-anchor="middle" x="245" y="-335.4" font-family="Arial" font-size="12.00" fill="#0f172a">Alocar inteligência faz parte da arquitetura.</text>
</g>
<!-- H&#45;&gt;C -->
<g id="edge9" class="edge">
<title>H&#45;&gt;C</title>
<path fill="none" stroke="#d97706" stroke-width="1.4" stroke-dasharray="1,5" d="M222.08,-322.93C206.72,-304.45 186.44,-280.05 170.4,-260.75"/>
</g>
</g>
</svg>
